{
	"asset":{
		"generator":"Khronos glTF Blender I/O v3.5.30",
		"version":"2.0"
	},
	"scene":0,
	"scenes":[
		{
			"name":"Scene",
			"nodes":[
				0
			]
		}
	],
	"nodes":[
		{
			"mesh":0,
			"name":"round_wooden_table_01",
			"rotation":[
				-0.1736481487751007,
				0,
				0,
				0.9848077893257141
			],
			"translation":[
				-0.0004700501449406147,
				0.008036643266677856,
				0.0650712251663208
			]
		}
	],
	"materials":[
		{
			"doubleSided":true,
			"name":"round_wooden_table_01",
			"normalTexture":{
				"index":0
			},
			"pbrMetallicRoughness":{
				"baseColorTexture":{
					"index":1
				},
				"metallicRoughnessTexture":{
					"index":2
				}
			}
		}
	],
	"meshes":[
		{
			"name":"Cylinder",
			"primitives":[
				{
					"attributes":{
						"POSITION":0,
						"TEXCOORD_0":1,
						"NORMAL":2
					},
					"indices":3,
					"material":0
				}
			]
		}
	],
	"textures":[
		{
			"sampler":0,
			"source":0
		},
		{
			"sampler":0,
			"source":1
		},
		{
			"sampler":0,
			"source":2
		}
	],
	"images":[
		{
			"bufferView":4,
			"mimeType":"image/png",
			"name":"round_wooden_table_01_nor_gl"
		},
		{
			"bufferView":5,
			"mimeType":"image/jpeg",
			"name":"round_wooden_table_01_diff_1k"
		},
		{
			"bufferView":6,
			"mimeType":"image/png",
			"name":"round_wooden_table_01_metal-round_wooden_table_01_rough"
		}
	],
	"accessors":[
		{
			"bufferView":0,
			"componentType":5126,
			"count":5128,
			"max":[
				0.6999394297599792,
				0.19258446991443634,
				0.6993486881256104
			],
			"min":[
				-0.699409544467926,
				-0.8124369978904724,
				-0.7000001668930054
			],
			"type":"VEC3"
		},
		{
			"bufferView":1,
			"componentType":5126,
			"count":5128,
			"type":"VEC2"
		},
		{
			"bufferView":2,
			"componentType":5126,
			"count":5128,
			"type":"VEC3"
		},
		{
			"bufferView":3,
			"componentType":5123,
			"count":23784,
			"type":"SCALAR"
		}
	],
	"bufferViews":[
		{
			"buffer":0,
			"byteLength":61536,
			"byteOffset":0,
			"target":34962
		},
		{
			"buffer":0,
			"byteLength":41024,
			"byteOffset":61536,
			"target":34962
		},
		{
			"buffer":0,
			"byteLength":61536,
			"byteOffset":102560,
			"target":34962
		},
		{
			"buffer":0,
			"byteLength":47568,
			"byteOffset":164096,
			"target":34963
		},
		{
			"buffer":0,
			"byteLength":1868211,
			"byteOffset":211664
		},
		{
			"buffer":0,
			"byteLength":117911,
			"byteOffset":2079876
		},
		{
			"buffer":0,
			"byteLength":581794,
			"byteOffset":2197788
		}
	],
	"samplers":[
		{
			"magFilter":9729,
			"minFilter":9987
		}
	],
	"buffers":[
		{
			"byteLength":2779584,
			"uri":"data:application/octet-stream;base64,"
		}
	]
}
